<?xml version="1.0" encoding="UTF-8"?>
<svg width="640" height="400" viewBox="0 0 640 400" fill="none" xmlns="http://www.w3.org/2000/svg">
  <defs>
    <linearGradient id="paint0_linear" x1="80" y1="40" x2="560" y2="360" gradientUnits="userSpaceOnUse">
      <stop stop-color="#312E81"/>
      <stop offset="0.5" stop-color="#4338CA"/>
      <stop offset="1" stop-color="#0EA5E9"/>
    </linearGradient>
    <linearGradient id="paint1_linear" x1="180" y1="120" x2="460" y2="280" gradientUnits="userSpaceOnUse">
      <stop stop-color="#F8FAFC" stop-opacity="0.95"/>
      <stop offset="1" stop-color="#CBD5F5" stop-opacity="0.85"/>
    </linearGradient>
    <linearGradient id="paint2_linear" x1="120" y1="300" x2="520" y2="180" gradientUnits="userSpaceOnUse">
      <stop stop-color="#22D3EE" stop-opacity="0.95"/>
      <stop offset="1" stop-color="#6366F1" stop-opacity="0.8"/>
    </linearGradient>
  </defs>
  <rect x="40" y="30" width="560" height="340" rx="32" fill="url(#paint0_linear)"/>
  <rect x="120" y="100" width="400" height="200" rx="24" fill="url(#paint1_linear)"/>
  <rect x="160" y="140" width="320" height="120" rx="18" fill="#0F172A" fill-opacity="0.15"/>
  <g stroke="#1D4ED8" stroke-width="3" stroke-linecap="round" stroke-linejoin="round">
    <path d="M180 260L220 200L280 220L320 180L380 210L420 160L460 200"/>
    <path d="M180 230H220L280 180L320 220L380 190H420L460 150"/>
  </g>
  <circle cx="220" cy="200" r="12" fill="#60A5FA"/>
  <circle cx="280" cy="220" r="12" fill="#60A5FA"/>
  <circle cx="320" cy="180" r="12" fill="#60A5FA"/>
  <circle cx="380" cy="210" r="12" fill="#60A5FA"/>
  <circle cx="420" cy="160" r="12" fill="#60A5FA"/>
  <circle cx="460" cy="200" r="12" fill="#60A5FA"/>
  <rect x="150" y="320" width="340" height="12" rx="6" fill="url(#paint2_linear)"/>
  <rect x="150" y="340" width="240" height="8" rx="4" fill="#F1F5F9" fill-opacity="0.6"/>
  <rect x="150" y="80" width="120" height="30" rx="12" fill="#1D4ED8" fill-opacity="0.85"/>
  <rect x="290" y="80" width="140" height="30" rx="12" fill="#1E293B" fill-opacity="0.65"/>
  <rect x="450" y="80" width="50" height="30" rx="12" fill="#1E293B" fill-opacity="0.45"/>
  <text x="180" y="100" text-anchor="middle" font-family="'Inter', 'Segoe UI', sans-serif" font-size="14" fill="#E2E8F0">GEO DATA</text>
  <text x="360" y="100" text-anchor="middle" font-family="'Inter', 'Segoe UI', sans-serif" font-size="14" fill="#E2E8F0" fill-opacity="0.75">AUTOMATION</text>
  <text x="475" y="100" text-anchor="middle" font-family="'Inter', 'Segoe UI', sans-serif" font-size="14" fill="#E2E8F0" fill-opacity="0.5">OPS</text>
</svg>
